<?xml version="1.0" encoding="UTF-8" standalone="no"?>
<svg
   xmlns:dc="http://purl.org/dc/elements/1.1/"
   xmlns:cc="http://creativecommons.org/ns#"
   xmlns:rdf="http://www.w3.org/1999/02/22-rdf-syntax-ns#"
   xmlns:svg="http://www.w3.org/2000/svg"
   xmlns="http://www.w3.org/2000/svg"
   xmlns:xlink="http://www.w3.org/1999/xlink"
   version="1.1"
   id="svg2"
   viewBox="0 0 568.92344 259.86147"
   height="73.338684mm"
   width="160.56284mm">
  <defs
     id="defs4">
    <linearGradient
       id="linearGradient4608">
      <stop
         id="stop4610"
         offset="0"
         style="stop-color:#979797;stop-opacity:1" />
      <stop
         id="stop4612"
         offset="1"
         style="stop-color:#ececec;stop-opacity:1" />
    </linearGradient>
    <linearGradient
       gradientUnits="userSpaceOnUse"
       y2="-115.21738"
       x2="334.27194"
       y1="-134.77612"
       x1="352.55313"
       id="linearGradient4614"
       xlink:href="#linearGradient4608" />
  </defs>
  <metadata
     id="metadata7">
    <rdf:RDF>
      <cc:Work
         rdf:about="">
        <dc:format>image/svg+xml</dc:format>
        <dc:type
           rdf:resource="http://purl.org/dc/dcmitype/StillImage" />
        <dc:title></dc:title>
      </cc:Work>
    </rdf:RDF>
  </metadata>
  <g
     id="layer3"
     style="display:inline"
     transform="translate(1.7558789,-15.46796)" />
  <g
     style="display:inline"
     id="layer4">
    <g
       id="layer2"
       style="display:inline"
       transform="translate(1.7558789,-15.46796)">
      <g
         id="surface286818"
         transform="matrix(1.1669755,-0.44795994,0.44795994,1.1669755,-17.842096,139.81369)">
        <path
           id="path5036"
           transform="matrix(1,0,0,-1,44.433,50.012)"
           d="m 5.9375e-4,2.8125e-4 109.39062625,0 c 62.10547,0 121.3164,-26.36328125 162.875,-72.51953125 l 82.66406,-91.80469"
           style="fill:none;stroke:#000000;stroke-width:0.3985;stroke-linecap:butt;stroke-linejoin:miter;stroke-miterlimit:10;stroke-opacity:1" />
        <path
           id="path5038"
           transform="matrix(1,0,0,-1,44.433,50.012)"
           d="m 5.9375e-4,2.8125e-4 0,39.85156275 109.39062625,0 c 73.39844,0 143.375,-31.160156 192.49219,-85.707031 l 82.66015,-91.804683 -29.62109,-26.66016"
           style="fill:none;stroke:#000000;stroke-width:0.3985;stroke-linecap:butt;stroke-linejoin:miter;stroke-miterlimit:10;stroke-opacity:1" />
        <path
           id="path5040"
           transform="matrix(1,0,0,-1,44.433,50.012)"
           d="m 9.961531,7.969031 99.429689,0 c 64.36719,0 125.73047,-27.324218 168.80078,-75.15625 l 48.66406,-54.046871 17.76563,16 -48.66407,54.046871 C 248.35606,1.679969 180.53184,31.879188 109.39122,31.879188 l -99.429689,0 z m 0,0"
           style="fill:#ffd7b0;fill-opacity:1;fill-rule:nonzero;stroke:#000000;stroke-width:0.3985;stroke-linecap:butt;stroke-linejoin:miter;stroke-miterlimit:10;stroke-dasharray:9.96277, 4.98138;stroke-opacity:1" />
        <path
           id="path5042"
           transform="matrix(1,0,0,-1,44.433,50.012)"
           d="m 5.9375e-4,19.926063 109.39062625,0 c 29.28515,0 58.34375,-5.386719 85.68359,-15.882813 35.21875,-13.519531 66.76172,-35.199219 92,-63.230469 l 82.66016,-91.804691"
           style="fill:none;stroke:#000000;stroke-width:0.3985;stroke-linecap:butt;stroke-linejoin:miter;stroke-miterlimit:10;stroke-dasharray:4.98138, 1.99255, 0.3985, 1.99255;stroke-opacity:1" />
        <path
           id="path5044"
           transform="matrix(1,0,0,-1,44.433,50.012)"
           d="m 363.14903,-125.81222 -18.53125,20.58203 -17.76953,-16 18.53516,-20.58203 z m 0,0"
           style="fill:url(#linearGradient4614);fill-opacity:1;fill-rule:nonzero;stroke:#000000;stroke-width:0.3985;stroke-linecap:butt;stroke-linejoin:miter;stroke-miterlimit:10;stroke-opacity:1" />
        <path
           id="path5046"
           transform="matrix(1,0,0,-1,44.433,50.012)"
           d="m 375.14512,-139.13644 -12,13.32422 -17.76953,-16 12,-13.32422 -5.92187,-5.33203 3.46875,-3.85156 29.61719,26.66406 -3.46875,3.84766 z m 0,0"
           style="fill:#979797;fill-opacity:1;fill-rule:nonzero;stroke:#000000;stroke-width:0.3985;stroke-linecap:butt;stroke-linejoin:miter;stroke-miterlimit:10;stroke-opacity:1" />
        <path
           id="path5048"
           d="m 251.63672,42.3125 c 0,-1.207031 -0.98438,-2.191406 -2.19531,-2.191406 -1.20704,0 -2.19141,0.984375 -2.19141,2.191406 0,1.210938 0.98437,2.195312 2.19141,2.195312 1.21093,0 2.19531,-0.984374 2.19531,-2.195312 z m 0,0"
           style="fill:#000000;fill-opacity:1;fill-rule:nonzero;stroke:none" />
        <path
           id="path5050"
           d="m 246.63672,55.335938 c 0,-1.210938 -0.98047,-2.191407 -2.19141,-2.191407 -1.21094,0 -2.1914,0.980469 -2.1914,2.191407 0,1.210937 0.98046,2.191406 2.1914,2.191406 1.21094,0 2.19141,-0.980469 2.19141,-2.191406 z m 0,0"
           style="fill:#000000;fill-opacity:1;fill-rule:nonzero;stroke:none" />
        <path
           id="path5052"
           d="m 236.75391,36.601562 c 0,-1.210937 -0.98047,-2.191406 -2.19141,-2.191406 -1.21094,0 -2.19141,0.980469 -2.19141,2.191406 0,1.210938 0.98047,2.191407 2.19141,2.191407 1.21094,0 2.19141,-0.980469 2.19141,-2.191407 z m 0,0"
           style="fill:#000000;fill-opacity:1;fill-rule:nonzero;stroke:none" />
        <path
           id="path5054"
           d="m 231.75391,49.621094 c 0,-1.207032 -0.98047,-2.191406 -2.19141,-2.191406 -1.21094,0 -2.19141,0.984374 -2.19141,2.191406 0,1.210937 0.98047,2.195312 2.19141,2.195312 1.21094,0 2.19141,-0.984375 2.19141,-2.195312 z m 0,0"
           style="fill:#000000;fill-opacity:1;fill-rule:nonzero;stroke:none" />
        <path
           id="path5056"
           d="m 84.480469,23.113281 c 0,-1.210937 -0.980469,-2.191406 -2.191407,-2.191406 -1.210937,0 -2.191406,0.980469 -2.191406,2.191406 0,1.210938 0.980469,2.191407 2.191406,2.191407 1.210938,0 2.191407,-0.980469 2.191407,-2.191407 z m 0,0"
           style="fill:#000000;fill-opacity:1;fill-rule:nonzero;stroke:none" />
        <path
           id="path5058"
           d="m 84.480469,37.0625 c 0,-1.210938 -0.980469,-2.191406 -2.191407,-2.191406 -1.210937,0 -2.191406,0.980468 -2.191406,2.191406 0,1.210938 0.980469,2.191406 2.191406,2.191406 1.210938,0 2.191407,-0.980468 2.191407,-2.191406 z m 0,0"
           style="fill:#000000;fill-opacity:1;fill-rule:nonzero;stroke:none" />
        <path
           id="path5060"
           d="m 68.542969,23.113281 c 0,-1.210937 -0.984375,-2.191406 -2.191407,-2.191406 -1.210937,0 -2.195312,0.980469 -2.195312,2.191406 0,1.210938 0.984375,2.191407 2.195312,2.191407 1.207032,0 2.191407,-0.980469 2.191407,-2.191407 z m 0,0"
           style="fill:#000000;fill-opacity:1;fill-rule:nonzero;stroke:none" />
        <path
           id="path5062"
           d="m 68.542969,37.0625 c 0,-1.210938 -0.984375,-2.191406 -2.191407,-2.191406 -1.210937,0 -2.195312,0.980468 -2.195312,2.191406 0,1.210938 0.984375,2.191406 2.195312,2.191406 1.207032,0 2.191407,-0.980468 2.191407,-2.191406 z m 0,0"
           style="fill:#000000;fill-opacity:1;fill-rule:nonzero;stroke:none" />
        <path
           id="path5064"
           transform="matrix(1,0,0,-1,44.433,50.012)"
           d="m -6.374406,2.8125e-4 0,39.85156275 -27.898438,0 0,-39.85156275 z m 0,0"
           style="fill:none;stroke:#000000;stroke-width:0.3985;stroke-linecap:butt;stroke-linejoin:miter;stroke-miterlimit:10;stroke-dasharray:2.98883, 1.99255;stroke-opacity:1" />
        <path
           id="path5066"
           transform="matrix(1,0,0,-1,44.433,50.012)"
           d="m -14.347062,2.8125e-4 0,-69.73828125 -19.925782,0 0,69.73828125 z m 0,0"
           style="fill:none;stroke:#000000;stroke-width:0.3985;stroke-linecap:butt;stroke-linejoin:miter;stroke-miterlimit:10;stroke-dasharray:2.98883, 1.99255;stroke-opacity:1" />
        <path
           id="path5068"
           transform="matrix(1,0,0,-1,44.433,50.012)"
           d="m -14.347062,-4.980187 -19.925782,0"
           style="fill:none;stroke:#000000;stroke-width:0.3985;stroke-linecap:butt;stroke-linejoin:miter;stroke-miterlimit:10;stroke-dasharray:2.98883, 1.99255;stroke-opacity:1" />
        <path
           id="path5070"
           transform="matrix(1,0,0,-1,44.433,50.012)"
           d="m -14.347062,-9.964562 -19.925782,0"
           style="fill:none;stroke:#000000;stroke-width:0.3985;stroke-linecap:butt;stroke-linejoin:miter;stroke-miterlimit:10;stroke-dasharray:2.98883, 1.99255;stroke-opacity:1" />
        <path
           id="path5072"
           transform="matrix(1,0,0,-1,44.433,50.012)"
           d="m -14.347062,-14.945031 -19.925782,0"
           style="fill:none;stroke:#000000;stroke-width:0.3985;stroke-linecap:butt;stroke-linejoin:miter;stroke-miterlimit:10;stroke-dasharray:2.98883, 1.99255;stroke-opacity:1" />
        <path
           id="path5074"
           transform="matrix(1,0,0,-1,44.433,50.012)"
           d="m -14.347062,-19.9255 -19.925782,0"
           style="fill:none;stroke:#000000;stroke-width:0.3985;stroke-linecap:butt;stroke-linejoin:miter;stroke-miterlimit:10;stroke-dasharray:2.98883, 1.99255;stroke-opacity:1" />
        <path
           id="path5076"
           transform="matrix(1,0,0,-1,44.433,50.012)"
           d="m -14.347062,-24.905969 -19.925782,0"
           style="fill:none;stroke:#000000;stroke-width:0.3985;stroke-linecap:butt;stroke-linejoin:miter;stroke-miterlimit:10;stroke-dasharray:2.98883, 1.99255;stroke-opacity:1" />
        <path
           id="path5078"
           transform="matrix(1,0,0,-1,44.433,50.012)"
           d="m -14.347062,-29.886437 -19.925782,0"
           style="fill:none;stroke:#000000;stroke-width:0.3985;stroke-linecap:butt;stroke-linejoin:miter;stroke-miterlimit:10;stroke-dasharray:2.98883, 1.99255;stroke-opacity:1" />
        <path
           id="path5080"
           transform="matrix(1,0,0,-1,44.433,50.012)"
           d="m -14.347062,-34.870812 -19.925782,0"
           style="fill:none;stroke:#000000;stroke-width:0.3985;stroke-linecap:butt;stroke-linejoin:miter;stroke-miterlimit:10;stroke-dasharray:2.98883, 1.99255;stroke-opacity:1" />
        <path
           id="path5082"
           transform="matrix(1,0,0,-1,44.433,50.012)"
           d="m -14.347062,-39.851281 -19.925782,0"
           style="fill:none;stroke:#000000;stroke-width:0.3985;stroke-linecap:butt;stroke-linejoin:miter;stroke-miterlimit:10;stroke-dasharray:2.98883, 1.99255;stroke-opacity:1" />
        <path
           id="path5084"
           transform="matrix(1,0,0,-1,44.433,50.012)"
           d="m -14.347062,-44.83175 -19.925782,0"
           style="fill:none;stroke:#000000;stroke-width:0.3985;stroke-linecap:butt;stroke-linejoin:miter;stroke-miterlimit:10;stroke-dasharray:2.98883, 1.99255;stroke-opacity:1" />
        <path
           id="path5086"
           transform="matrix(1,0,0,-1,44.433,50.012)"
           d="m -14.347062,-49.812219 -19.925782,0"
           style="fill:none;stroke:#000000;stroke-width:0.3985;stroke-linecap:butt;stroke-linejoin:miter;stroke-miterlimit:10;stroke-dasharray:2.98883, 1.99255;stroke-opacity:1" />
        <path
           id="path5088"
           transform="matrix(1,0,0,-1,44.433,50.012)"
           d="m -14.347062,-54.792687 -19.925782,0"
           style="fill:none;stroke:#000000;stroke-width:0.3985;stroke-linecap:butt;stroke-linejoin:miter;stroke-miterlimit:10;stroke-dasharray:2.98883, 1.99255;stroke-opacity:1" />
        <path
           id="path5090"
           transform="matrix(1,0,0,-1,44.433,50.012)"
           d="m -14.347062,-59.777062 -19.925782,0"
           style="fill:none;stroke:#000000;stroke-width:0.3985;stroke-linecap:butt;stroke-linejoin:miter;stroke-miterlimit:10;stroke-dasharray:2.98883, 1.99255;stroke-opacity:1" />
        <path
           id="path5092"
           transform="matrix(1,0,0,-1,44.433,50.012)"
           d="m -14.347062,-64.757531 -19.925782,0"
           style="fill:none;stroke:#000000;stroke-width:0.3985;stroke-linecap:butt;stroke-linejoin:miter;stroke-miterlimit:10;stroke-dasharray:2.98883, 1.99255;stroke-opacity:1" />
        <path
           id="path5094"
           transform="matrix(1,0,0,-1,44.433,50.012)"
           d="m 5.9375e-4,2.8125e-4 -6.37499975,0"
           style="fill:none;stroke:#000000;stroke-width:0.3985;stroke-linecap:butt;stroke-linejoin:miter;stroke-miterlimit:10;stroke-opacity:1" />
        <path
           id="path5096"
           transform="matrix(1,0,0,-1,44.433,50.012)"
           d="m 5.9375e-4,1.594031 -6.37499975,0"
           style="fill:none;stroke:#000000;stroke-width:0.3985;stroke-linecap:butt;stroke-linejoin:miter;stroke-miterlimit:10;stroke-opacity:1" />
        <path
           id="path5098"
           transform="matrix(1,0,0,-1,44.433,50.012)"
           d="m 5.9375e-4,3.187781 -6.37499975,0"
           style="fill:none;stroke:#000000;stroke-width:0.3985;stroke-linecap:butt;stroke-linejoin:miter;stroke-miterlimit:10;stroke-opacity:1" />
        <path
           id="path5100"
           transform="matrix(1,0,0,-1,44.433,50.012)"
           d="m 5.9375e-4,4.781531 -6.37499975,0"
           style="fill:none;stroke:#000000;stroke-width:0.3985;stroke-linecap:butt;stroke-linejoin:miter;stroke-miterlimit:10;stroke-opacity:1" />
        <path
           id="path5102"
           transform="matrix(1,0,0,-1,44.433,50.012)"
           d="m 5.9375e-4,6.375281 -6.37499975,0"
           style="fill:none;stroke:#000000;stroke-width:0.3985;stroke-linecap:butt;stroke-linejoin:miter;stroke-miterlimit:10;stroke-opacity:1" />
        <path
           id="path5104"
           transform="matrix(1,0,0,-1,44.433,50.012)"
           d="m 5.9375e-4,7.969031 -6.37499975,0"
           style="fill:none;stroke:#000000;stroke-width:0.3985;stroke-linecap:butt;stroke-linejoin:miter;stroke-miterlimit:10;stroke-opacity:1" />
        <path
           id="path5106"
           transform="matrix(1,0,0,-1,44.433,50.012)"
           d="m 5.9375e-4,9.562781 -6.37499975,0"
           style="fill:none;stroke:#000000;stroke-width:0.3985;stroke-linecap:butt;stroke-linejoin:miter;stroke-miterlimit:10;stroke-opacity:1" />
        <path
           id="path5108"
           transform="matrix(1,0,0,-1,44.433,50.012)"
           d="m 5.9375e-4,11.156531 -6.37499975,0"
           style="fill:none;stroke:#000000;stroke-width:0.3985;stroke-linecap:butt;stroke-linejoin:miter;stroke-miterlimit:10;stroke-opacity:1" />
        <path
           id="path5110"
           transform="matrix(1,0,0,-1,44.433,50.012)"
           d="m 5.9375e-4,12.750281 -6.37499975,0"
           style="fill:none;stroke:#000000;stroke-width:0.3985;stroke-linecap:butt;stroke-linejoin:miter;stroke-miterlimit:10;stroke-opacity:1" />
        <path
           id="path5112"
           transform="matrix(1,0,0,-1,44.433,50.012)"
           d="m 5.9375e-4,14.347938 -6.37499975,0"
           style="fill:none;stroke:#000000;stroke-width:0.3985;stroke-linecap:butt;stroke-linejoin:miter;stroke-miterlimit:10;stroke-opacity:1" />
        <path
           id="path5114"
           transform="matrix(1,0,0,-1,44.433,50.012)"
           d="m 5.9375e-4,15.941688 -6.37499975,0"
           style="fill:none;stroke:#000000;stroke-width:0.3985;stroke-linecap:butt;stroke-linejoin:miter;stroke-miterlimit:10;stroke-opacity:1" />
        <path
           id="path5116"
           transform="matrix(1,0,0,-1,44.433,50.012)"
           d="m 5.9375e-4,17.535438 -6.37499975,0"
           style="fill:none;stroke:#000000;stroke-width:0.3985;stroke-linecap:butt;stroke-linejoin:miter;stroke-miterlimit:10;stroke-opacity:1" />
        <path
           id="path5118"
           transform="matrix(1,0,0,-1,44.433,50.012)"
           d="m 5.9375e-4,19.129188 -6.37499975,0"
           style="fill:none;stroke:#000000;stroke-width:0.3985;stroke-linecap:butt;stroke-linejoin:miter;stroke-miterlimit:10;stroke-opacity:1" />
        <path
           id="path5120"
           transform="matrix(1,0,0,-1,44.433,50.012)"
           d="m 5.9375e-4,20.722938 -6.37499975,0"
           style="fill:none;stroke:#000000;stroke-width:0.3985;stroke-linecap:butt;stroke-linejoin:miter;stroke-miterlimit:10;stroke-opacity:1" />
        <path
           id="path5122"
           transform="matrix(1,0,0,-1,44.433,50.012)"
           d="m 5.9375e-4,22.316688 -6.37499975,0"
           style="fill:none;stroke:#000000;stroke-width:0.3985;stroke-linecap:butt;stroke-linejoin:miter;stroke-miterlimit:10;stroke-opacity:1" />
        <path
           id="path5124"
           transform="matrix(1,0,0,-1,44.433,50.012)"
           d="m 5.9375e-4,23.910438 -6.37499975,0"
           style="fill:none;stroke:#000000;stroke-width:0.3985;stroke-linecap:butt;stroke-linejoin:miter;stroke-miterlimit:10;stroke-opacity:1" />
        <path
           id="path5126"
           transform="matrix(1,0,0,-1,44.433,50.012)"
           d="m 5.9375e-4,25.504188 -6.37499975,0"
           style="fill:none;stroke:#000000;stroke-width:0.3985;stroke-linecap:butt;stroke-linejoin:miter;stroke-miterlimit:10;stroke-opacity:1" />
        <path
           id="path5128"
           transform="matrix(1,0,0,-1,44.433,50.012)"
           d="m 5.9375e-4,27.097938 -6.37499975,0"
           style="fill:none;stroke:#000000;stroke-width:0.3985;stroke-linecap:butt;stroke-linejoin:miter;stroke-miterlimit:10;stroke-opacity:1" />
        <path
           id="path5130"
           transform="matrix(1,0,0,-1,44.433,50.012)"
           d="m 5.9375e-4,28.691688 -6.37499975,0"
           style="fill:none;stroke:#000000;stroke-width:0.3985;stroke-linecap:butt;stroke-linejoin:miter;stroke-miterlimit:10;stroke-opacity:1" />
        <path
           id="path5132"
           transform="matrix(1,0,0,-1,44.433,50.012)"
           d="m 5.9375e-4,30.285438 -6.37499975,0"
           style="fill:none;stroke:#000000;stroke-width:0.3985;stroke-linecap:butt;stroke-linejoin:miter;stroke-miterlimit:10;stroke-opacity:1" />
        <path
           id="path5134"
           transform="matrix(1,0,0,-1,44.433,50.012)"
           d="m 5.9375e-4,31.879188 -6.37499975,0"
           style="fill:none;stroke:#000000;stroke-width:0.3985;stroke-linecap:butt;stroke-linejoin:miter;stroke-miterlimit:10;stroke-opacity:1" />
        <path
           id="path5136"
           transform="matrix(1,0,0,-1,44.433,50.012)"
           d="m 5.9375e-4,33.472938 -6.37499975,0"
           style="fill:none;stroke:#000000;stroke-width:0.3985;stroke-linecap:butt;stroke-linejoin:miter;stroke-miterlimit:10;stroke-opacity:1" />
        <path
           id="path5138"
           transform="matrix(1,0,0,-1,44.433,50.012)"
           d="m 5.9375e-4,35.066688 -6.37499975,0"
           style="fill:none;stroke:#000000;stroke-width:0.3985;stroke-linecap:butt;stroke-linejoin:miter;stroke-miterlimit:10;stroke-opacity:1" />
        <path
           id="path5140"
           transform="matrix(1,0,0,-1,44.433,50.012)"
           d="m 5.9375e-4,36.664344 -6.37499975,0"
           style="fill:none;stroke:#000000;stroke-width:0.3985;stroke-linecap:butt;stroke-linejoin:miter;stroke-miterlimit:10;stroke-opacity:1" />
        <path
           id="path5142"
           transform="matrix(1,0,0,-1,44.433,50.012)"
           d="m 5.9375e-4,38.258094 -6.37499975,0"
           style="fill:none;stroke:#000000;stroke-width:0.3985;stroke-linecap:butt;stroke-linejoin:miter;stroke-miterlimit:10;stroke-opacity:1" />
        <path
           id="path5144"
           transform="matrix(1,0,0,-1,44.433,50.012)"
           d="m 5.9375e-4,39.851844 -6.37499975,0"
           style="fill:none;stroke:#000000;stroke-width:0.3985;stroke-linecap:butt;stroke-linejoin:miter;stroke-miterlimit:10;stroke-opacity:1" />
        <path
           id="path5146"
           transform="matrix(1,0,0,-1,44.433,50.012)"
           d="m 5.9375e-4,2.8125e-4 0,39.85156275"
           style="fill:none;stroke:#000000;stroke-width:0.3985;stroke-linecap:butt;stroke-linejoin:miter;stroke-miterlimit:10;stroke-opacity:1" />
        <path
           id="path5148"
           transform="matrix(1,0,0,-1,44.433,50.012)"
           d="m -1.593156,2.8125e-4 0,39.85156275"
           style="fill:none;stroke:#000000;stroke-width:0.3985;stroke-linecap:butt;stroke-linejoin:miter;stroke-miterlimit:10;stroke-opacity:1" />
        <path
           id="path5150"
           transform="matrix(1,0,0,-1,44.433,50.012)"
           d="m -3.186906,2.8125e-4 0,39.85156275"
           style="fill:none;stroke:#000000;stroke-width:0.3985;stroke-linecap:butt;stroke-linejoin:miter;stroke-miterlimit:10;stroke-opacity:1" />
        <path
           id="path5152"
           transform="matrix(1,0,0,-1,44.433,50.012)"
           d="m -4.780656,2.8125e-4 0,39.85156275"
           style="fill:none;stroke:#000000;stroke-width:0.3985;stroke-linecap:butt;stroke-linejoin:miter;stroke-miterlimit:10;stroke-opacity:1" />
        <path
           id="path5154"
           transform="matrix(1,0,0,-1,44.433,50.012)"
           d="m -6.374406,2.8125e-4 0,39.85156275"
           style="fill:none;stroke:#000000;stroke-width:0.3985;stroke-linecap:butt;stroke-linejoin:miter;stroke-miterlimit:10;stroke-opacity:1" />
      </g>
    </g>
  </g>
  <g
     style="display:inline"
     id="layer1">
    <circle
       r="7.5"
       cy="23.46796"
       cx="32.63179"
       id="group1"
       style="display:inline;fill:#ff0000;fill-rule:evenodd;stroke:#000000;stroke-width:1px;stroke-linecap:butt;stroke-linejoin:miter;stroke-opacity:1"
       transform="translate(1.7558789,-15.46796)" />
    <circle
       r="7.5"
       cy="44.717945"
       cx="32.63179"
       id="group2"
       style="display:inline;fill:#44aa00;fill-rule:evenodd;stroke:#000000;stroke-width:1px;stroke-linecap:butt;stroke-linejoin:miter;stroke-opacity:1"
       transform="translate(1.7558789,-15.46796)" />
    <circle
       r="7.5"
       cy="65.967949"
       cx="32.63179"
       id="group3"
       style="display:inline;fill:#0000ff;fill-rule:evenodd;stroke:#000000;stroke-width:1px;stroke-linecap:butt;stroke-linejoin:miter;stroke-opacity:1"
       transform="translate(1.7558789,-15.46796)" />
    <g
       transform="translate(-46.442096,-225.9016)"
       id="all-sensors"
       style="display:inline">
      <circle
         style="fill:#ff0000;fill-rule:evenodd;stroke:#000000;stroke-width:1px;stroke-linecap:butt;stroke-linejoin:miter;stroke-opacity:1"
         id="position1"
         cx="106.75555"
         cy="346.30203"
         r="4.311522" />
      <circle
         style="fill:#ff0000;fill-rule:evenodd;stroke:#000000;stroke-width:1px;stroke-linecap:butt;stroke-linejoin:miter;stroke-opacity:1"
         id="position2"
         cx="111.39174"
         cy="358.69586"
         r="4.311522" />
      <circle
         style="fill:#ff0000;fill-rule:evenodd;stroke:#000000;stroke-width:1px;stroke-linecap:butt;stroke-linejoin:miter;stroke-opacity:1"
         id="position3"
         cx="116.73377"
         cy="371.22934"
         r="4.311522" />
      <circle
         style="fill:#ff0000;fill-rule:evenodd;stroke:#000000;stroke-width:1px;stroke-linecap:butt;stroke-linejoin:miter;stroke-opacity:1"
         id="position5"
         cx="332.11771"
         cy="281.9404"
         r="4.311522" />
      <circle
         style="fill:#ff0000;fill-rule:evenodd;stroke:#000000;stroke-width:1px;stroke-linecap:butt;stroke-linejoin:miter;stroke-opacity:1"
         id="position6"
         cx="552.79651"
         cy="355.00128"
         r="4.311522" />
      <circle
         style="fill:#ff0000;fill-rule:evenodd;stroke:#000000;stroke-width:1px;stroke-linecap:butt;stroke-linejoin:miter;stroke-opacity:1"
         id="position7"
         cx="545.73346"
         cy="368.70276"
         r="4.311522" />
      <circle
         style="fill:#ff0000;fill-rule:evenodd;stroke:#000000;stroke-width:1px;stroke-linecap:butt;stroke-linejoin:miter;stroke-opacity:1"
         id="position8"
         cx="538.67053"
         cy="382.68018"
         r="4.311522" />
      <circle
         style="fill:#ff0000;fill-rule:evenodd;stroke:#000000;stroke-width:1px;stroke-linecap:butt;stroke-linejoin:miter;stroke-opacity:1"
         id="position4"
         cx="329.86676"
         cy="311.62503"
         r="4.311522" />
    </g>
    <text
       id="text4453"
       y="10.758789"
       x="51.532921"
       style="font-style:normal;font-weight:normal;font-size:10px;line-height:125%;font-family:sans-serif;letter-spacing:0px;word-spacing:0px;fill:#000000;fill-opacity:1;stroke:none;stroke-width:1px;stroke-linecap:butt;stroke-linejoin:miter;stroke-opacity:1"
       xml:space="preserve"><tspan
         style="font-size:10px"
         y="10.758789"
         x="51.532921"
         id="tspan4455">Verschiebungen</tspan></text>
    <text
       id="text4453-4"
       y="32.978024"
       x="51.532921"
       style="font-style:normal;font-weight:normal;font-size:10px;line-height:125%;font-family:sans-serif;letter-spacing:0px;word-spacing:0px;display:inline;fill:#000000;fill-opacity:1;stroke:none;stroke-width:1px;stroke-linecap:butt;stroke-linejoin:miter;stroke-opacity:1"
       xml:space="preserve"><tspan
         style="font-size:10px"
         y="32.978024"
         x="51.532921"
         id="tspan4455-2">Holzfeuchte</tspan></text>
    <text
       id="text4453-1"
       y="53.258778"
       x="51.532921"
       style="font-style:normal;font-weight:normal;font-size:10px;line-height:125%;font-family:sans-serif;letter-spacing:0px;word-spacing:0px;display:inline;fill:#000000;fill-opacity:1;stroke:none;stroke-width:1px;stroke-linecap:butt;stroke-linejoin:miter;stroke-opacity:1"
       xml:space="preserve"><tspan
         style="font-size:10px"
         y="53.258778"
         x="51.532921"
         id="tspan4455-8">Dehnungen</tspan></text>
  </g>
</svg>
